rotated_Sprint_05400001_forces_filt50Hz.mot
version=1
nRows=19
nColumns=19
inDegrees=yes
endheader
time	R_ground_force_vx	R_ground_force_vy	R_ground_force_vz	R_ground_force_px	R_ground_force_py	R_ground_force_pz	R_ground_torque_x	R_ground_torque_y	R_ground_torque_z	L_ground_force_vx	L_ground_force_vy	L_ground_force_vz	L_ground_force_px	L_ground_force_py	L_ground_force_pz	L_ground_torque_x	L_ground_torque_y	L_ground_torque_z	
1.809500	-315.792878	1904.069882	-32.291502	  0.973765	  0.000000	 -0.253946	  0.000000	 29.684686	  0.000000	  0.000000	  0.000000	  0.000000	  0.273508	  0.000000	 -0.468599	  0.000000	  0.000000	  0.000000
1.810000	-325.287480	1914.308835	-22.744130	  0.972805	  0.000000	 -0.253842	  0.000000	 28.494870	  0.000000	  0.000000	  0.000000	  0.000000	  0.275190	  0.000000	 -0.468373	  0.000000	  0.000000	  0.000000
1.810500	-334.745127	1924.274433	-13.243316	  0.971858	  0.000000	 -0.253730	  0.000000	 27.174573	  0.000000	  0.000000	  0.000000	  0.000000	  0.276907	  0.000000	 -0.467974	  0.000000	  0.000000	  0.000000
1.811000	-344.127563	1934.015101	 -3.817332	  0.970922	  0.000000	 -0.253610	  0.000000	 25.735671	  0.000000	  0.000000	  0.000000	  0.000000	  0.278625	  0.000000	 -0.467574	  0.000000	  0.000000	  0.000000
1.811500	-353.397560	1943.578331	  5.505795	  0.969997	  0.000000	 -0.253485	  0.000000	 24.190763	  0.000000	  0.000000	  0.000000	  0.000000	  0.280343	  0.000000	 -0.467174	  0.000000	  0.000000	  0.000000
1.812000	-362.519305	1953.010235	 14.698305	  0.969083	  0.000000	 -0.253355	  0.000000	 22.553055	  0.000000	  0.000000	  0.000000	  0.000000	  0.282060	  0.000000	 -0.466775	  0.000000	  0.000000	  0.000000
1.812500	-371.458796	1962.355131	 23.732773	  0.968178	  0.000000	 -0.253222	  0.000000	 20.836230	  0.000000	  0.000000	  0.000000	  0.000000	  0.283778	  0.000000	 -0.466375	  0.000000	  0.000000	  0.000000
1.813000	-380.184218	1971.655183	 32.582238	  0.967282	  0.000000	 -0.253087	  0.000000	 19.054296	  0.000000	  0.000000	  0.000000	  0.000000	  0.285495	  0.000000	 -0.465976	  0.000000	  0.000000	  0.000000
1.813500	-388.666255	1980.950126	 41.220356	  0.966394	  0.000000	 -0.252951	  0.000000	 17.221425	  0.000000	  0.000000	  0.000000	  0.000000	  0.287212	  0.000000	 -0.465577	  0.000000	  0.000000	  0.000000
1.814000	-396.878334	1990.277046	 49.621569	  0.965512	  0.000000	 -0.252816	  0.000000	 15.351787	  0.000000	  0.000000	  0.000000	  0.000000	  0.288930	  0.000000	 -0.465177	  0.000000	  0.000000	  0.000000
1.814500	-404.796769	1999.670220	 57.761225	  0.964634	  0.000000	 -0.252683	  0.000000	 13.459404	  0.000000	  0.000000	  0.000000	  0.000000	  0.290648	  0.000000	 -0.464777	  0.000000	  0.000000	  0.000000
1.815000	-412.400846	2009.160954	 65.615659	  0.963760	  0.000000	 -0.252553	  0.000000	 11.558021	  0.000000	  0.000000	  0.000000	  0.000000	  0.292365	  0.000000	 -0.464378	  0.000000	  0.000000	  0.000000
1.815500	-419.672821	2018.777421	 73.162210	  0.962887	  0.000000	 -0.252427	  0.000000	  9.661010	  0.000000	  0.000000	  0.000000	  0.000000	  0.294112	  0.000000	 -0.463806	  0.000000	  0.000000	  0.000000
1.816000	-426.597885	2028.544483	 80.379199	  0.962012	  0.000000	 -0.252307	  0.000000	  7.781311	  0.000000	  0.000000	  0.000000	  0.000000	  0.295859	  0.000000	 -0.463235	  0.000000	  0.000000	  0.000000
1.816500	-433.164085	2038.483530	 87.245877	  0.961134	  0.000000	 -0.252192	  0.000000	  5.931398	  0.000000	  0.000000	  0.000000	  0.000000	  0.297605	  0.000000	 -0.462663	  0.000000	  0.000000	  0.000000
1.817000	-439.362225	2048.612345	 93.742380	  0.960249	  0.000000	 -0.252085	  0.000000	  4.123265	  0.000000	  0.000000	  0.000000	  0.000000	  0.299352	  0.000000	 -0.462092	  0.000000	  0.000000	  0.000000
1.817500	-445.185744	2058.945006	 99.849692	  0.959354	  0.000000	 -0.251986	  0.000000	  2.368416	  0.000000	  0.000000	  0.000000	  0.000000	  0.301099	  0.000000	 -0.461520	  0.000000	  0.000000	  0.000000
1.818000	-450.630579	2069.491828	105.549668	  0.958447	  0.000000	 -0.251895	  0.000000	  0.677858	  0.000000	  0.000000	  0.000000	  0.000000	  0.302846	  0.000000	 -0.460948	  0.000000	  0.000000	  0.000000
1.818500	-455.694994	2080.259320	110.825128	  0.957524	  0.000000	 -0.251814	  0.000000	 -0.937922	  0.000000	  0.000000	  0.000000	  0.000000	  0.304593	  0.000000	 -0.460377	  0.000000	  0.000000	  0.000000
